<svg xmlns="http://www.w3.org/2000/svg" width="238" height="30" viewBox="0 0 238 30"><defs><style>.a,.c{fill:none;}.a{stroke:#000;stroke-width:2px;}.b{stroke:none;}</style></defs><g transform="translate(-12 -3347)"><g transform="translate(11.844 3346.777)"><g class="a" transform="translate(0.156 0.223)"><circle class="b" cx="6.5" cy="6.5" r="6.5"/><circle class="c" cx="6.5" cy="6.5" r="5.5"/></g><g class="a" transform="translate(26.156 0.223)"><circle class="b" cx="6.5" cy="6.5" r="6.5"/><circle class="c" cx="6.5" cy="6.5" r="5.5"/></g><g class="a" transform="translate(52.156 0.223)"><circle class="b" cx="6.5" cy="6.5" r="6.5"/><circle class="c" cx="6.5" cy="6.5" r="5.5"/></g></g><g transform="translate(91.844 3346.777)"><g class="a" transform="translate(0.156 0.223)"><circle class="b" cx="6.5" cy="6.5" r="6.5"/><circle class="c" cx="6.5" cy="6.5" r="5.5"/></g><g class="a" transform="translate(26.156 0.223)"><circle class="b" cx="6.5" cy="6.5" r="6.5"/><circle class="c" cx="6.5" cy="6.5" r="5.5"/></g><g class="a" transform="translate(52.156 0.223)"><circle class="b" cx="6.5" cy="6.5" r="6.5"/><circle class="c" cx="6.5" cy="6.5" r="5.5"/></g></g><g transform="translate(169.844 3346.777)"><g class="a" transform="translate(0.156 0.223)"><circle class="b" cx="6.5" cy="6.5" r="6.5"/><circle class="c" cx="6.5" cy="6.5" r="5.5"/></g><g class="a" transform="translate(26.156 0.223)"><circle class="b" cx="6.5" cy="6.5" r="6.5"/><circle class="c" cx="6.5" cy="6.5" r="5.5"/></g><g class="a" transform="translate(52.156 0.223)"><circle class="b" cx="6.5" cy="6.5" r="6.5"/><circle class="c" cx="6.5" cy="6.5" r="5.5"/></g></g><g transform="translate(26.955 3363.86)"><g class="a" transform="translate(0.045 0.14)"><circle class="b" cx="6.5" cy="6.5" r="6.5"/><circle class="c" cx="6.5" cy="6.5" r="5.5"/></g><g class="a" transform="translate(26.045 0.14)"><circle class="b" cx="6.5" cy="6.5" r="6.5"/><circle class="c" cx="6.5" cy="6.5" r="5.5"/></g><g class="a" transform="translate(52.045 0.14)"><circle class="b" cx="6.5" cy="6.5" r="6.5"/><circle class="c" cx="6.5" cy="6.5" r="5.5"/></g></g><g transform="translate(106.955 3363.86)"><g class="a" transform="translate(0.045 0.14)"><circle class="b" cx="6.5" cy="6.5" r="6.5"/><circle class="c" cx="6.5" cy="6.5" r="5.5"/></g><g class="a" transform="translate(26.045 0.14)"><circle class="b" cx="6.5" cy="6.5" r="6.5"/><circle class="c" cx="6.5" cy="6.5" r="5.5"/></g><g class="a" transform="translate(52.045 0.14)"><circle class="b" cx="6.5" cy="6.5" r="6.5"/><circle class="c" cx="6.5" cy="6.5" r="5.5"/></g></g><g transform="translate(184.955 3363.86)"><g class="a" transform="translate(0.045 0.14)"><circle class="b" cx="6.5" cy="6.5" r="6.5"/><circle class="c" cx="6.5" cy="6.5" r="5.5"/></g><g class="a" transform="translate(26.045 0.14)"><circle class="b" cx="6.5" cy="6.5" r="6.5"/><circle class="c" cx="6.5" cy="6.5" r="5.5"/></g><g class="a" transform="translate(52.045 0.14)"><circle class="b" cx="6.5" cy="6.5" r="6.5"/><circle class="c" cx="6.5" cy="6.5" r="5.5"/></g></g></g></svg>