<svg id="Layer_1" data-name="Layer 1" xmlns="http://www.w3.org/2000/svg" xmlns:xlink="http://www.w3.org/1999/xlink" viewBox="0 0 82 29.97">
  <defs>
    <clipPath id="clip-path" transform="translate(-1.99 -1)">
      <rect width="86" height="32" style="fill: none"/>
    </clipPath>
  </defs>
  <title>wokas_logo_color</title>
  <g style="clip-path: url(#clip-path)">
    <g id="a">
      <g>
        <path d="M71,14.49a5,5,0,0,0,3.9-2.61,1,1,0,0,0,.18-.81,3,3,0,0,0-.7-.92h0l-6-6.24h0c-.57-.58-1.1-1-1.47-.94s-.61.48-.87,1.58l-.82,3.51a5,5,0,0,0,1,4.56A5.62,5.62,0,0,0,71,14.49m5.59-3.09a2.82,2.82,0,0,1-.42,1.22,6.41,6.41,0,0,1-5,3.32,7.06,7.06,0,0,1-5.92-2.35,6.4,6.4,0,0,1-1.38-5.87l.82-3.51c.43-1.83,1.21-2.6,2.16-2.7a2.85,2.85,0,0,1,1.89.68A3.69,3.69,0,0,1,74,2a3.61,3.61,0,0,1,1,1.63,2.7,2.7,0,0,1,1.89.25c.82.5,1.17,1.54.74,3.37l-.82,3.51c-.06.23-.12.44-.19.65ZM72.46,6l3,3.14h0l.17.17.56-2.39c.26-1.1.19-1.63-.08-1.8a2.47,2.47,0,0,0-1.73.19h0Zm1.12-2a2.24,2.24,0,0,0-2.8-1.46,2.3,2.3,0,0,0-1,.63l1.57,1.64Z" transform="translate(-1.99 -1)" style="fill: #df2818"/>
        <path d="M62.31,28.57a.78.78,0,0,0,.59-.4,5,5,0,0,0,.54-1q.29-.7.51-1.44c.16-.54.32-1.1.46-1.68s.31-1.32.47-2c.09-.55.18-1.1.28-1.64.15-.79.28-1.51.4-2.17s.22-1.17.32-1.72a1.3,1.3,0,0,0-.55-.12,2.15,2.15,0,0,0-1.61.92,8.91,8.91,0,0,0-1.3,2.28,16.75,16.75,0,0,0-.9,2.95,17,17,0,0,0-.37,2.94,7.39,7.39,0,0,0,.22,2.25c.18.6.49.9.94.89M2.45,23.52c.09-.4.21-1,.37-1.67s.35-1.53.56-2.42.43-1.85.65-2.87.46-2,.71-3q.82-3.47,1.8-7.47l5.75-1c-.64,2.61-1.2,5.27-1.76,7.63-.24,1-.49,2-.73,3.09s-.47,2.07-.7,3-.45,1.85-.64,2.68S8.12,23,8,23.58c-.5,2.24-.8,3.83-.92,4.77s0,1.41.5,1.4A1.71,1.71,0,0,0,8.9,29,8.52,8.52,0,0,0,10,27.09a22.9,22.9,0,0,0,.89-2.44c.25-.79.46-1.52.64-2.19.05-.22.1-.46.16-.71.16-.72.34-1.52.55-2.42s.43-1.84.66-2.86.46-2,.71-3Q14.43,10,15.44,6l5.74-.85q-1,3.93-1.8,7.47c-.25,1-.49,2-.73,3.1s-.47,2.06-.68,3l-.62,2.68c-.19.83-.34,1.52-.46,2.08-.49,2.26-.82,3.91-1,4.94s0,1.54.43,1.54a1.94,1.94,0,0,0,1.43-1,15.46,15.46,0,0,0,1.44-2.69,39.45,39.45,0,0,0,1.37-3.82c.43-1.43.84-2.9,1.22-4.4s.71-3,1-4.41.54-2.75.73-3.89.31-2.08.38-2.83.05-1.14,0-1.22A3.7,3.7,0,0,1,27,5.39a3.32,3.32,0,0,1,1.57,2.2,11.3,11.3,0,0,1,.21,3.93,26.46,26.46,0,0,1-1,4.92,35,35,0,0,1-1.94,5.14,27.73,27.73,0,0,1-2.68,4.63A15,15,0,0,1,20,29.55a6,6,0,0,1-3.55,1.3q-3.54,0-4.7-1.66a4.53,4.53,0,0,1-.68-2.28l-.21.47A10,10,0,0,1,9.79,29.2a5.32,5.32,0,0,1-1.28,1.27A2.61,2.61,0,0,1,7,31a9,9,0,0,1-2.88-.34,2.85,2.85,0,0,1-1.62-1.23A4.5,4.5,0,0,1,2,27.08a17.09,17.09,0,0,1,.45-3.56ZM33.66,30c.38,0,.75-.35,1.11-1a13,13,0,0,0,1-2.56,32.83,32.83,0,0,0,.73-3.3,26,26,0,0,0,.37-3.3,11.37,11.37,0,0,0-.13-2.54c-.13-.67-.36-1-.7-1a1.73,1.73,0,0,0-1.41,1,10.28,10.28,0,0,0-1,2.55,23.54,23.54,0,0,0-.67,3.3,24.4,24.4,0,0,0-.23,3.3A11.34,11.34,0,0,0,32.91,29c.17.67.42,1,.75,1Zm2.39-14.41a4.63,4.63,0,0,1,3.25,1.07A5.61,5.61,0,0,1,41,19.41,9.08,9.08,0,0,1,41.2,23,10.07,10.07,0,0,1,40,26.69a8.5,8.5,0,0,1-2.55,2.82,6.66,6.66,0,0,1-3.82,1.16A5,5,0,0,1,30.3,29.6a6.24,6.24,0,0,1-1.91-2.76A8.63,8.63,0,0,1,28,23.21a9,9,0,0,1,1.12-3.65,8.1,8.1,0,0,1,2.67-2.82,7.86,7.86,0,0,1,4.3-1.16Zm5.58,15L46,6l5-.89L47.84,23.32c2.22-2.53,5.26-6.59,6.17-8.81a3.31,3.31,0,0,1,1.46.22,1.78,1.78,0,0,1,1,.92,2.74,2.74,0,0,1,.12,1.72,5.91,5.91,0,0,1-3,3.45c-.45.23-.91.44-1.39.65a2.87,2.87,0,0,1,1.13.42,2.45,2.45,0,0,1,1,1.36A4.32,4.32,0,0,1,54.4,25c-.09.64-.18,1.24-.28,1.79A10.59,10.59,0,0,0,54,28.21c0,.36.16.54.49.54s.75-.3,1.12-.88a12.6,12.6,0,0,0,1-1.94,3.45,3.45,0,0,0,.14-.34,11.32,11.32,0,0,1,1.06-6.39,7.86,7.86,0,0,1,2.34-2.81,5.91,5.91,0,0,1,3.6-1.16,4.38,4.38,0,0,1,2.1.48l.46.27h0s2.44,1.68,4.35,1.44c-.14.65-.27,1.41-.41,2.28s-.35,2-.57,3.1-.4,2.06-.51,2.81-.18,1.33-.2,1.77a1.93,1.93,0,0,0,.1.92.45.45,0,0,0,.43.26c.38,0,.76-.3,1.12-.88l.24-.4,0-.09a2.88,2.88,0,0,1-.14-1.94A2.6,2.6,0,0,1,72,23.79,5.73,5.73,0,0,1,75,23.37a.91.91,0,0,0-.41.7,4,4,0,0,0,0,1.29,8.35,8.35,0,0,0,.31,1.55,7.79,7.79,0,0,0,.59,1.47,3.51,3.51,0,0,0,.78,1.05,1,1,0,0,0,.94.27,1.58,1.58,0,0,0,.67-.37,1.53,1.53,0,0,0,.51-.86A3,3,0,0,0,78.29,27a6.75,6.75,0,0,0-1.14-2.11A17.36,17.36,0,0,0,75.51,23l0,0a8.74,8.74,0,0,1-2.67-3.83,3.73,3.73,0,0,1,0-2.12,7.57,7.57,0,0,0,3.62-3.18l.17-.07a5.37,5.37,0,0,1,2.86-.28,6.2,6.2,0,0,1,2.42,1,5.26,5.26,0,0,1,1.63,1.72A3,3,0,0,1,84,18.16a2.41,2.41,0,0,1-1.06,1.61,5.42,5.42,0,0,1-2.94.77.84.84,0,0,0,.3-.74,4.67,4.67,0,0,0-.18-1.29A9.24,9.24,0,0,0,79.54,17a9,9,0,0,0-.81-1.41,3.86,3.86,0,0,0-.94-.95,1,1,0,0,0-1-.17,1.54,1.54,0,0,0-.61.46,1.52,1.52,0,0,0-.36.91,3.13,3.13,0,0,0,.32,1.44c.65,1.5,2.56,2.78,3.72,4.2a8.23,8.23,0,0,1,2,4.06,3.54,3.54,0,0,1-1.06,3,7.35,7.35,0,0,1-3.6,1.79,5.49,5.49,0,0,1-2.9-.05,6,6,0,0,1-2.26-1.25,5.43,5.43,0,0,1-1.08-1.31L71,27.9a5.38,5.38,0,0,1-.9,1.16,4.13,4.13,0,0,1-1.2.82,3.76,3.76,0,0,1-1.51.32,3,3,0,0,1-2.26-.68,3.1,3.1,0,0,1-.83-1.8l0-.27c-.08.19-.16.37-.25.55a5.12,5.12,0,0,1-1.24,1.64,2.81,2.81,0,0,1-1.82.64,3.4,3.4,0,0,1-2.66-1.08,6,6,0,0,1-1.41-2.76l0-.07c0,.13-.09.26-.13.39a9.44,9.44,0,0,1-.64,1.32,5.38,5.38,0,0,1-.9,1.16,4.36,4.36,0,0,1-1.2.83,3.76,3.76,0,0,1-1.51.32,3.26,3.26,0,0,1-2-.49,2.33,2.33,0,0,1-.86-1.25,4.08,4.08,0,0,1-.1-1.63c.07-.59.15-1.14.22-1.64a6.67,6.67,0,0,0,.08-1.26c0-.34-.18-.51-.47-.5a1.3,1.3,0,0,0-1.12.65,6.79,6.79,0,0,0-.7,1.4,8,8,0,0,0-.25.93l-.1.56c0,.18,0,.36-.07.55s0,.13-.06.18l-.47,2.61Z" transform="translate(-1.99 -1)"/>
      </g>
    </g>
  </g>
</svg>
