<svg xmlns="http://www.w3.org/2000/svg" width="33.203" height="33.203" viewBox="0 0 33.203 33.203"><defs><style>.a{opacity:0.6;}.b{fill:#3a3a3a;}.c{fill:none;stroke:#3a3a3a;stroke-miterlimit:10;stroke-width:2px;}</style></defs><g class="a" transform="translate(-190.915 -1921.5)"><path class="b" d="M22.8,19.022l.328-2.3c0-.164-.082-.328-.246-.328H20.748a.218.218,0,0,1-.246-.246v-1.56a1.407,1.407,0,0,1,1.314-1.56h1.314a.218.218,0,0,0,.246-.246V10.811a.218.218,0,0,0-.246-.246,15.945,15.945,0,0,0-1.971-.164,3.5,3.5,0,0,0-3.7,3.859v1.889a.218.218,0,0,1-.246.246H15.246a.218.218,0,0,0-.246.246v2.3a.218.218,0,0,0,.246.246h1.971a.218.218,0,0,1,.246.246v6.323A.218.218,0,0,0,17.71,26h2.545a.218.218,0,0,0,.246-.246V19.432a.218.218,0,0,1,.246-.246h1.806C22.636,19.268,22.719,19.186,22.8,19.022Z" transform="translate(188.41 1919.717)"/><circle class="c" cx="15.601" cy="15.601" r="15.601" transform="translate(191.915 1922.5)"/></g></svg>