<svg xmlns="http://www.w3.org/2000/svg" width="36.507" height="32.752" viewBox="0 0 36.507 32.752"><defs><style>.a{opacity:0.6;}.b{fill:#3a3a3a;}.c{fill:none;stroke:#3a3a3a;stroke-miterlimit:10;stroke-width:2px;}</style></defs><g class="a" transform="translate(-236.83 -1921.499)"><path class="b" d="M72.3,24.352V13.431a.761.761,0,0,1,1.15-.657l9.607,5.5a.768.768,0,0,1,0,1.314l-9.607,5.5A.809.809,0,0,1,72.3,24.352Z" transform="translate(179.161 1919.313)"/><path class="c" d="M9.376.7a155.1,155.1,0,0,1,16.7,0,9.853,9.853,0,0,1,8.7,8.8,102.028,102.028,0,0,1,0,12.7,9.853,9.853,0,0,1-8.7,8.8,155.1,155.1,0,0,1-16.7,0,9.853,9.853,0,0,1-8.7-8.8,102.027,102.027,0,0,1,0-12.7C1.024,5.1,5.068,1,9.376.7Z" transform="translate(237.356 1922.025)"/></g></svg>