<svg id="Layer_1" data-name="Layer 1" xmlns="http://www.w3.org/2000/svg" xmlns:xlink="http://www.w3.org/1999/xlink" viewBox="0 0 82.02 30.02">
  <defs>
    <clipPath id="clip-path" transform="translate(0 0.01)">
      <rect x="-1.99" y="-1" width="86" height="32" style="fill: none"/>
    </clipPath>
  </defs>
  <title>wokas_logo_white</title>
  <g style="clip-path: url(#clip-path)">
    <g id="a">
      <g>
        <path d="M69,13.49a5,5,0,0,0,3.9-2.61,1,1,0,0,0,.18-.81,3,3,0,0,0-.7-.92h0l-6-6.24h0c-.57-.58-1.1-1-1.47-.94s-.61.48-.87,1.58l-.82,3.51a5,5,0,0,0,1,4.56A5.62,5.62,0,0,0,69,13.49M74.6,10.4a2.82,2.82,0,0,1-.42,1.22,6.4,6.4,0,0,1-5,3.32,7.07,7.07,0,0,1-5.92-2.35,6.4,6.4,0,0,1-1.38-5.87l.82-3.51c.43-1.83,1.21-2.6,2.16-2.7a2.85,2.85,0,0,1,1.89.68A3.69,3.69,0,0,1,72,1L72,1a3.64,3.64,0,0,1,1,1.63,2.7,2.7,0,0,1,1.89.25c.82.5,1.17,1.54.74,3.37l-.82,3.51c-.06.23-.12.44-.19.65ZM70.47,5l3,3.14h0l.17.17.56-2.39c.26-1.1.19-1.63-.08-1.8a2.47,2.47,0,0,0-1.73.19h0Zm1.12-2a2.24,2.24,0,0,0-2.8-1.46,2.34,2.34,0,0,0-1,.63l1.57,1.64Z" transform="translate(0 0.01)" style="fill: #fff"/>
        <path d="M60.32,27.57a.78.78,0,0,0,.59-.4,4.83,4.83,0,0,0,.54-1q.28-.71.51-1.44c.16-.54.32-1.1.46-1.68s.31-1.32.47-2,.18-1.1.28-1.64c.15-.79.28-1.51.4-2.17s.22-1.17.32-1.72a1.3,1.3,0,0,0-.55-.12,2.17,2.17,0,0,0-1.61.92,9,9,0,0,0-1.3,2.28,16.75,16.75,0,0,0-.9,2.95,17.13,17.13,0,0,0-.37,2.94,7.39,7.39,0,0,0,.22,2.25c.18.6.49.9.94.89M.46,22.52c.09-.4.21-1,.37-1.67s.35-1.53.56-2.42.43-1.85.65-2.87.46-2,.71-3q.82-3.47,1.8-7.47l5.75-1C9.66,6.7,9.1,9.36,8.54,11.72c-.24,1-.49,2-.73,3.09s-.47,2.07-.7,3-.45,1.85-.64,2.68S6.13,22,6,22.58c-.5,2.24-.8,3.83-.92,4.77s0,1.41.5,1.4A1.72,1.72,0,0,0,6.91,28,8.46,8.46,0,0,0,8,26.09a23.73,23.73,0,0,0,.89-2.44c.25-.79.46-1.52.64-2.19.05-.22.1-.46.16-.71.16-.72.34-1.52.55-2.42s.43-1.84.66-2.86.46-2,.71-3Q12.45,9,13.45,5l5.74-.85q-1,3.93-1.8,7.47c-.25,1-.49,2-.73,3.1s-.47,2.06-.68,3l-.62,2.68c-.19.83-.34,1.52-.46,2.08-.49,2.26-.82,3.91-1,4.94s0,1.54.43,1.54a1.94,1.94,0,0,0,1.43-1,15.46,15.46,0,0,0,1.44-2.69,39.45,39.45,0,0,0,1.37-3.82c.43-1.43.84-2.9,1.22-4.4s.71-3,1-4.41.54-2.75.73-3.89.31-2.08.38-2.83a3.46,3.46,0,0,0,0-1.22A3.7,3.7,0,0,1,25,4.39a3.35,3.35,0,0,1,1.57,2.2,11.3,11.3,0,0,1,.21,3.93,26.5,26.5,0,0,1-1,4.92,35,35,0,0,1-1.94,5.14,27.34,27.34,0,0,1-2.68,4.63A15,15,0,0,1,18,28.55a6,6,0,0,1-3.55,1.3q-3.54,0-4.7-1.66a4.5,4.5,0,0,1-.68-2.28l-.21.47A10.1,10.1,0,0,1,7.8,28.2a5.32,5.32,0,0,1-1.28,1.27A2.59,2.59,0,0,1,5,30a9.06,9.06,0,0,1-2.88-.34A2.85,2.85,0,0,1,.51,28.43,4.46,4.46,0,0,1,0,26.08,17.09,17.09,0,0,1,.46,22.52ZM31.67,29c.38,0,.75-.35,1.11-1a13.07,13.07,0,0,0,1-2.56c.3-1.09.54-2.19.73-3.3a26,26,0,0,0,.37-3.3,11.37,11.37,0,0,0-.13-2.54c-.13-.67-.36-1-.7-1a1.75,1.75,0,0,0-1.41,1,10.17,10.17,0,0,0-1,2.55,23.25,23.25,0,0,0-.67,3.3,24.29,24.29,0,0,0-.23,3.3A10.92,10.92,0,0,0,30.92,28C31.09,28.67,31.34,29,31.67,29Zm2.39-14.41a4.63,4.63,0,0,1,3.25,1.07A5.62,5.62,0,0,1,39,18.41a9.05,9.05,0,0,1,.2,3.59A10,10,0,0,1,38,25.69a8.61,8.61,0,0,1-2.55,2.82,6.66,6.66,0,0,1-3.82,1.16,5,5,0,0,1-3.33-1.07,6.19,6.19,0,0,1-1.91-2.76A8.6,8.6,0,0,1,26,22.21a9,9,0,0,1,1.12-3.65,8.1,8.1,0,0,1,2.67-2.82,7.84,7.84,0,0,1,4.3-1.16Zm5.58,15L44,5l5-.89L45.85,22.32c2.22-2.53,5.26-6.59,6.17-8.81a3.29,3.29,0,0,1,1.46.22,1.77,1.77,0,0,1,1,.92,2.74,2.74,0,0,1,.12,1.72,5.91,5.91,0,0,1-3,3.45c-.45.23-.91.44-1.39.65a2.87,2.87,0,0,1,1.13.42,2.45,2.45,0,0,1,1,1.36A4.3,4.3,0,0,1,52.41,24c-.09.64-.18,1.24-.28,1.79A11.18,11.18,0,0,0,52,27.21c0,.36.16.54.49.54s.75-.3,1.12-.88a13.18,13.18,0,0,0,1-1.94,3.45,3.45,0,0,0,.14-.34,11.27,11.27,0,0,1,1.06-6.39,7.86,7.86,0,0,1,2.34-2.81,5.91,5.91,0,0,1,3.6-1.16,4.38,4.38,0,0,1,2.1.48l.46.27h0s2.44,1.68,4.35,1.44c-.14.65-.27,1.41-.41,2.28s-.35,2-.57,3.1-.4,2.06-.51,2.81S67,25.94,67,26.38a1.92,1.92,0,0,0,.1.92.45.45,0,0,0,.43.26c.38,0,.76-.3,1.12-.88l.24-.4v-.09a2.88,2.88,0,0,1-.14-1.94A2.59,2.59,0,0,1,70,22.79a5.71,5.71,0,0,1,3-.42.92.92,0,0,0-.41.7,4,4,0,0,0,0,1.29,8.19,8.19,0,0,0,.31,1.55,7.79,7.79,0,0,0,.59,1.47,3.51,3.51,0,0,0,.78,1.05,1,1,0,0,0,.94.27,1.58,1.58,0,0,0,.67-.37,1.53,1.53,0,0,0,.51-.86A2.93,2.93,0,0,0,76.3,26a6.75,6.75,0,0,0-1.14-2.11A17.36,17.36,0,0,0,73.52,22h0a8.74,8.74,0,0,1-2.67-3.83,3.65,3.65,0,0,1,0-2.12,7.57,7.57,0,0,0,3.62-3.18l.17-.07a5.37,5.37,0,0,1,2.86-.28,6.28,6.28,0,0,1,2.42,1,5.26,5.26,0,0,1,1.63,1.72A3,3,0,0,1,82,17.16,2.41,2.41,0,0,1,81,18.77a5.44,5.44,0,0,1-2.94.77.84.84,0,0,0,.3-.74,4.67,4.67,0,0,0-.18-1.29A9.22,9.22,0,0,0,77.55,16a9.37,9.37,0,0,0-.81-1.41,3.86,3.86,0,0,0-.94-.95,1,1,0,0,0-1-.17,1.61,1.61,0,0,0-1,1.37,3.13,3.13,0,0,0,.32,1.44c.65,1.5,2.56,2.78,3.72,4.2a8.24,8.24,0,0,1,2,4.06,3.54,3.54,0,0,1-1.06,3,7.35,7.35,0,0,1-3.6,1.79,5.49,5.49,0,0,1-2.9,0A5.91,5.91,0,0,1,70.05,28,5.43,5.43,0,0,1,69,26.72l0,.18a5.38,5.38,0,0,1-.9,1.16,4.13,4.13,0,0,1-1.2.82,3.76,3.76,0,0,1-1.51.32,3,3,0,0,1-2.26-.68,3.07,3.07,0,0,1-.83-1.8v-.27c-.08.19-.16.37-.25.55a5.23,5.23,0,0,1-1.24,1.64,2.81,2.81,0,0,1-1.82.64,3.38,3.38,0,0,1-2.66-1.08,6,6,0,0,1-1.41-2.76v-.07a1.49,1.49,0,0,1-.13.39,8.93,8.93,0,0,1-.64,1.32,5.38,5.38,0,0,1-.9,1.16,4.52,4.52,0,0,1-1.2.83,3.76,3.76,0,0,1-1.51.32,3.22,3.22,0,0,1-2-.49,2.33,2.33,0,0,1-.86-1.25,4.08,4.08,0,0,1-.1-1.63c.07-.59.15-1.14.22-1.64a6.67,6.67,0,0,0,.08-1.26c0-.34-.18-.51-.47-.5a1.3,1.3,0,0,0-1.12.65,6.79,6.79,0,0,0-.7,1.4,7.51,7.51,0,0,0-.25.93l-.1.56a1.51,1.51,0,0,1-.07.55c-.07.19,0,.13-.06.18l-.47,2.61Z" transform="translate(0 0.01)" style="fill: #fff"/>
      </g>
    </g>
  </g>
</svg>
